M48
; DRILL file {KiCad 5.1.9+dfsg1-1+deb11u1} date Wed Jan  7 19:13:28 2026
; FORMAT={-:-/ absolute / inch / decimal}
; #@! TF.CreationDate,2026-01-07T19:13:28+01:00
; #@! TF.GenerationSoftware,Kicad,Pcbnew,5.1.9+dfsg1-1+deb11u1
; #@! TF.FileFunction,Plated,1,2,PTH
FMAT,2
INCH
T1C0.0157
T2C0.0276
T3C0.0315
T4C0.0394
T5C0.0551
T6C0.1181
T7C0.1260
%
G90
G05
T1
X2.75Y-5.65
X2.875Y-6.975
X3.0091Y-5.475
X3.025Y-5.425
X3.05Y-2.5555
X3.05Y-4.95
X3.55Y-5.65
X3.675Y-6.975
X3.8091Y-5.475
X3.825Y-5.425
X3.85Y-2.55
X3.85Y-4.95
X4.175Y-7.0085
X4.225Y-8.375
X4.35Y-5.65
X4.475Y-6.975
X4.575Y-7.036
X4.6091Y-5.475
X4.625Y-5.425
X4.65Y-2.55
X4.65Y-4.95
X4.795Y-8.4445
X4.7961Y-8.3961
X4.8228Y-8.475
X4.8665Y-8.525
X4.9665Y-8.35
X4.9665Y-8.425
X5.1337Y-7.0557
X5.15Y-5.65
X5.175Y-7.0557
X5.1909Y-8.3905
X5.2165Y-8.425
X5.275Y-6.975
X5.4091Y-5.475
X5.4142Y-8.2894
X5.425Y-5.425
X5.4398Y-8.325
X5.4475Y-7.5275
X5.45Y-2.55
X5.45Y-4.95
X5.4909Y-8.3905
X5.4923Y-7.525
X5.5165Y-8.425
X5.5337Y-7.525
X5.5388Y-7.6888
X5.575Y-7.5264
X5.675Y-7.1
X5.725Y-7.1
X5.9165Y-8.425
X5.95Y-5.65
X6.025Y-6.975
X6.1247Y-7.552
X6.1849Y-7.5901
X6.2421Y-7.4171
X6.25Y-2.55
X6.25Y-3.85
X6.25Y-4.95
X6.25Y-7.6
X6.2518Y-7.4573
T2
X2.95Y-2.65
X2.95Y-2.95
X2.95Y-5.05
X2.95Y-5.35
X3.05Y-2.65
X3.05Y-2.95
X3.05Y-5.05
X3.05Y-5.35
X3.75Y-2.65
X3.75Y-2.95
X3.75Y-5.05
X3.75Y-5.35
X3.85Y-2.65
X3.85Y-2.95
X3.85Y-5.05
X3.85Y-5.35
X4.55Y-2.65
X4.55Y-2.95
X4.55Y-5.05
X4.55Y-5.35
X4.65Y-2.65
X4.65Y-2.95
X4.65Y-5.05
X4.65Y-5.35
X5.35Y-2.65
X5.35Y-2.95
X5.35Y-5.05
X5.35Y-5.35
X5.45Y-2.65
X5.45Y-2.95
X5.45Y-5.05
X5.45Y-5.35
X6.15Y-2.65
X6.15Y-2.95
X6.15Y-5.05
X6.15Y-5.35
X6.25Y-2.65
X6.25Y-2.95
X6.25Y-5.05
X6.25Y-5.35
T3
X2.45Y-6.025
X2.45Y-6.125
X2.45Y-6.225
X2.45Y-6.325
X2.45Y-6.425
X2.45Y-6.525
X2.45Y-6.625
X2.45Y-6.725
X2.45Y-6.875
X2.6469Y-6.875
X2.75Y-6.025
X2.75Y-6.125
X2.75Y-6.225
X2.75Y-6.325
X2.75Y-6.425
X2.75Y-6.525
X2.75Y-6.625
X2.75Y-6.725
X2.9Y-2.75
X2.9Y-2.85
X2.9Y-5.15
X2.9Y-5.25
X3.0969Y-2.75
X3.0969Y-2.85
X3.0969Y-5.15
X3.0969Y-5.25
X3.25Y-6.025
X3.25Y-6.125
X3.25Y-6.225
X3.25Y-6.325
X3.25Y-6.425
X3.25Y-6.525
X3.25Y-6.625
X3.25Y-6.725
X3.25Y-6.875
X3.4469Y-6.875
X3.55Y-6.025
X3.55Y-6.125
X3.55Y-6.225
X3.55Y-6.325
X3.55Y-6.425
X3.55Y-6.525
X3.55Y-6.625
X3.55Y-6.725
X3.7Y-2.75
X3.7Y-2.85
X3.7Y-5.15
X3.7Y-5.25
X3.8969Y-2.75
X3.8969Y-2.85
X3.8969Y-5.15
X3.8969Y-5.25
X4.05Y-6.025
X4.05Y-6.125
X4.05Y-6.225
X4.05Y-6.325
X4.05Y-6.425
X4.05Y-6.525
X4.05Y-6.625
X4.05Y-6.725
X4.05Y-6.875
X4.2469Y-6.875
X4.35Y-6.025
X4.35Y-6.125
X4.35Y-6.225
X4.35Y-6.325
X4.35Y-6.425
X4.35Y-6.525
X4.35Y-6.625
X4.35Y-6.725
X4.5Y-2.75
X4.5Y-2.85
X4.5Y-5.15
X4.5Y-5.25
X4.6969Y-2.75
X4.6969Y-2.85
X4.6969Y-5.15
X4.6969Y-5.25
X4.85Y-6.025
X4.85Y-6.125
X4.85Y-6.225
X4.85Y-6.325
X4.85Y-6.425
X4.85Y-6.525
X4.85Y-6.625
X4.85Y-6.725
X4.85Y-6.875
X5.0469Y-6.875
X5.15Y-6.025
X5.15Y-6.125
X5.15Y-6.225
X5.15Y-6.325
X5.15Y-6.425
X5.15Y-6.525
X5.15Y-6.625
X5.15Y-6.725
X5.3Y-2.75
X5.3Y-2.85
X5.3Y-5.15
X5.3Y-5.25
X5.4969Y-2.75
X5.4969Y-2.85
X5.4969Y-5.15
X5.4969Y-5.25
X5.65Y-6.025
X5.65Y-6.125
X5.65Y-6.225
X5.65Y-6.325
X5.65Y-6.425
X5.65Y-6.525
X5.65Y-6.625
X5.65Y-6.725
X5.65Y-6.875
X5.8469Y-6.875
X5.95Y-6.025
X5.95Y-6.125
X5.95Y-6.225
X5.95Y-6.325
X5.95Y-6.425
X5.95Y-6.525
X5.95Y-6.625
X5.95Y-6.725
X6.1Y-2.75
X6.1Y-2.85
X6.1Y-5.15
X6.1Y-5.25
X6.2969Y-2.75
X6.2969Y-2.85
X6.2969Y-5.15
X6.2969Y-5.25
T4
X2.5Y-7.25
X2.5Y-7.35
X2.5Y-7.45
X2.5Y-7.95
X2.5Y-8.05
X2.5Y-8.15
X2.5Y-8.85
X2.55Y-1.75
X2.55Y-1.8591
X2.55Y-1.9681
X2.55Y-2.0772
X2.55Y-2.1862
X2.55Y-2.2953
X2.55Y-2.4043
X2.55Y-2.5134
X2.55Y-2.6224
X2.55Y-2.7315
X2.55Y-2.8406
X2.55Y-2.9496
X2.55Y-3.0587
X2.55Y-4.15
X2.55Y-4.2591
X2.55Y-4.3681
X2.55Y-4.4772
X2.55Y-4.5862
X2.55Y-4.6953
X2.55Y-4.8043
X2.55Y-4.9134
X2.55Y-5.0224
X2.55Y-5.1315
X2.55Y-5.2406
X2.55Y-5.3496
X2.55Y-5.4587
X2.6Y-8.7
X2.6Y-8.85
X2.6618Y-1.8045
X2.6618Y-1.9136
X2.6618Y-2.0226
X2.6618Y-2.1317
X2.6618Y-2.2407
X2.6618Y-2.3498
X2.6618Y-2.4589
X2.6618Y-2.5679
X2.6618Y-2.677
X2.6618Y-2.786
X2.6618Y-2.8951
X2.6618Y-3.0041
X2.6618Y-4.2045
X2.6618Y-4.3136
X2.6618Y-4.4226
X2.6618Y-4.5317
X2.6618Y-4.6407
X2.6618Y-4.7498
X2.6618Y-4.8589
X2.6618Y-4.9679
X2.6618Y-5.077
X2.6618Y-5.186
X2.6618Y-5.2951
X2.6618Y-5.4041
X2.7Y-8.7
X2.7Y-8.85
X2.8Y-7.25
X2.8Y-7.35
X2.8Y-7.45
X2.8Y-7.95
X2.8Y-8.05
X2.8Y-8.15
X2.8Y-8.7
X2.8Y-8.85
X2.9Y-8.7
X2.9Y-8.85
X3.15Y-8.65
X3.25Y-8.65
X3.35Y-1.75
X3.35Y-1.8591
X3.35Y-1.9681
X3.35Y-2.0772
X3.35Y-2.1862
X3.35Y-2.2953
X3.35Y-2.4043
X3.35Y-2.5134
X3.35Y-2.6224
X3.35Y-2.7315
X3.35Y-2.8406
X3.35Y-2.9496
X3.35Y-3.0587
X3.35Y-4.15
X3.35Y-4.2591
X3.35Y-4.3681
X3.35Y-4.4772
X3.35Y-4.5862
X3.35Y-4.6953
X3.35Y-4.8043
X3.35Y-4.9134
X3.35Y-5.0224
X3.35Y-5.1315
X3.35Y-5.2406
X3.35Y-5.3496
X3.35Y-5.4587
X3.35Y-8.65
X3.45Y-8.65
X3.4618Y-1.8045
X3.4618Y-1.9136
X3.4618Y-2.0226
X3.4618Y-2.1317
X3.4618Y-2.2407
X3.4618Y-2.3498
X3.4618Y-2.4589
X3.4618Y-2.5679
X3.4618Y-2.677
X3.4618Y-2.786
X3.4618Y-2.8951
X3.4618Y-3.0041
X3.4618Y-4.2045
X3.4618Y-4.3136
X3.4618Y-4.4226
X3.4618Y-4.5317
X3.4618Y-4.6407
X3.4618Y-4.7498
X3.4618Y-4.8589
X3.4618Y-4.9679
X3.4618Y-5.077
X3.4618Y-5.186
X3.4618Y-5.2951
X3.4618Y-5.4041
X3.55Y-8.65
X3.65Y-8.65
X4.1Y-7.2
X4.1Y-7.3
X4.1Y-8.6
X4.1Y-8.7
X4.15Y-1.75
X4.15Y-1.8591
X4.15Y-1.9681
X4.15Y-2.0772
X4.15Y-2.1862
X4.15Y-2.2953
X4.15Y-2.4043
X4.15Y-2.5134
X4.15Y-2.6224
X4.15Y-2.7315
X4.15Y-2.8406
X4.15Y-2.9496
X4.15Y-3.0587
X4.15Y-4.15
X4.15Y-4.2591
X4.15Y-4.3681
X4.15Y-4.4772
X4.15Y-4.5862
X4.15Y-4.6953
X4.15Y-4.8043
X4.15Y-4.9134
X4.15Y-5.0224
X4.15Y-5.1315
X4.15Y-5.2406
X4.15Y-5.3496
X4.15Y-5.4587
X4.2Y-7.2
X4.2Y-7.3
X4.2Y-8.6
X4.2Y-8.7
X4.25Y-8.95
X4.2618Y-1.8045
X4.2618Y-1.9136
X4.2618Y-2.0226
X4.2618Y-2.1317
X4.2618Y-2.2407
X4.2618Y-2.3498
X4.2618Y-2.4589
X4.2618Y-2.5679
X4.2618Y-2.677
X4.2618Y-2.786
X4.2618Y-2.8951
X4.2618Y-3.0041
X4.2618Y-4.2045
X4.2618Y-4.3136
X4.2618Y-4.4226
X4.2618Y-4.5317
X4.2618Y-4.6407
X4.2618Y-4.7498
X4.2618Y-4.8589
X4.2618Y-4.9679
X4.2618Y-5.077
X4.2618Y-5.186
X4.2618Y-5.2951
X4.2618Y-5.4041
X4.3Y-7.2
X4.3Y-7.3
X4.3Y-8.6
X4.3Y-8.7
X4.35Y-8.95
X4.4Y-7.2
X4.4Y-7.3
X4.4Y-8.35
X4.4Y-8.6
X4.4Y-8.7
X4.45Y-8.95
X4.5Y-7.2
X4.5Y-7.3
X4.5Y-8.35
X4.5Y-8.6
X4.5Y-8.7
X4.6Y-7.2
X4.6Y-7.3
X4.6Y-8.6
X4.6Y-8.7
X4.7Y-7.2
X4.7Y-7.3
X4.7Y-8.6
X4.7Y-8.7
X4.8Y-7.2
X4.8Y-7.3
X4.8Y-8.6
X4.8Y-8.7
X4.9Y-7.2
X4.9Y-7.3
X4.9Y-8.6
X4.9Y-8.7
X4.95Y-1.75
X4.95Y-1.8591
X4.95Y-1.9681
X4.95Y-2.0772
X4.95Y-2.1862
X4.95Y-2.2953
X4.95Y-2.4043
X4.95Y-2.5134
X4.95Y-2.6224
X4.95Y-2.7315
X4.95Y-2.8406
X4.95Y-2.9496
X4.95Y-3.0587
X4.95Y-4.15
X4.95Y-4.2591
X4.95Y-4.3681
X4.95Y-4.4772
X4.95Y-4.5862
X4.95Y-4.6953
X4.95Y-4.8043
X4.95Y-4.9134
X4.95Y-5.0224
X4.95Y-5.1315
X4.95Y-5.2406
X4.95Y-5.3496
X4.95Y-5.4587
X5.0Y-7.2
X5.0Y-7.3
X5.0Y-8.6
X5.0Y-8.7
X5.0618Y-1.8045
X5.0618Y-1.9136
X5.0618Y-2.0226
X5.0618Y-2.1317
X5.0618Y-2.2407
X5.0618Y-2.3498
X5.0618Y-2.4589
X5.0618Y-2.5679
X5.0618Y-2.677
X5.0618Y-2.786
X5.0618Y-2.8951
X5.0618Y-3.0041
X5.0618Y-4.2045
X5.0618Y-4.3136
X5.0618Y-4.4226
X5.0618Y-4.5317
X5.0618Y-4.6407
X5.0618Y-4.7498
X5.0618Y-4.8589
X5.0618Y-4.9679
X5.0618Y-5.077
X5.0618Y-5.186
X5.0618Y-5.2951
X5.0618Y-5.4041
X5.1Y-7.2
X5.1Y-7.3
X5.1Y-8.6
X5.1Y-8.7
X5.2Y-7.2
X5.2Y-7.3
X5.2Y-8.6
X5.2Y-8.7
X5.3Y-7.2
X5.3Y-7.3
X5.3Y-8.6
X5.3Y-8.7
X5.4Y-7.2
X5.4Y-7.3
X5.4Y-8.6
X5.4Y-8.7
X5.5Y-7.2
X5.5Y-7.3
X5.5Y-8.6
X5.5Y-8.7
X5.6Y-7.2
X5.6Y-7.3
X5.6Y-8.6
X5.6Y-8.7
X5.65Y-8.95
X5.7Y-7.2
X5.7Y-7.3
X5.7Y-8.6
X5.7Y-8.7
X5.75Y-1.75
X5.75Y-1.8591
X5.75Y-1.9681
X5.75Y-2.0772
X5.75Y-2.1862
X5.75Y-2.2953
X5.75Y-2.4043
X5.75Y-2.5134
X5.75Y-2.6224
X5.75Y-2.7315
X5.75Y-2.8406
X5.75Y-2.9496
X5.75Y-3.0587
X5.75Y-4.15
X5.75Y-4.2591
X5.75Y-4.3681
X5.75Y-4.4772
X5.75Y-4.5862
X5.75Y-4.6953
X5.75Y-4.8043
X5.75Y-4.9134
X5.75Y-5.0224
X5.75Y-5.1315
X5.75Y-5.2406
X5.75Y-5.3496
X5.75Y-5.4587
X5.75Y-8.95
X5.8Y-7.2
X5.8Y-7.3
X5.8Y-8.6
X5.8Y-8.7
X5.85Y-8.95
X5.8618Y-1.8045
X5.8618Y-1.9136
X5.8618Y-2.0226
X5.8618Y-2.1317
X5.8618Y-2.2407
X5.8618Y-2.3498
X5.8618Y-2.4589
X5.8618Y-2.5679
X5.8618Y-2.677
X5.8618Y-2.786
X5.8618Y-2.8951
X5.8618Y-3.0041
X5.8618Y-4.2045
X5.8618Y-4.3136
X5.8618Y-4.4226
X5.8618Y-4.5317
X5.8618Y-4.6407
X5.8618Y-4.7498
X5.8618Y-4.8589
X5.8618Y-4.9679
X5.8618Y-5.077
X5.8618Y-5.186
X5.8618Y-5.2951
X5.8618Y-5.4041
X5.9Y-7.2
X5.9Y-7.3
X5.9Y-8.6
X5.9Y-8.7
X5.95Y-8.95
X6.0Y-7.2
X6.0Y-7.3
X6.0Y-8.6
X6.0Y-8.7
X6.1Y-7.2
X6.1Y-7.3
X6.1Y-8.6
X6.1Y-8.7
X6.2Y-7.2
X6.2Y-7.3
X6.2Y-8.6
X6.2Y-8.7
T5
X2.25Y-6.35
X2.25Y-6.55
X2.25Y-6.9
X2.25Y-7.1
X2.25Y-7.45
X2.25Y-7.65
X2.25Y-7.85
X2.25Y-8.2
X2.25Y-8.4
X2.25Y-8.6
X3.35Y-8.95
X3.55Y-8.95
X3.75Y-8.95
X3.95Y-8.95
X4.75Y-8.95
X4.95Y-8.95
X5.15Y-8.95
X5.35Y-8.95
T6
X2.2Y-1.45
X2.2Y-3.6
X2.2Y-6.0
X2.2Y-9.0
X4.2Y-3.6
X6.2Y-1.45
X6.2Y-3.6
X6.2Y-6.0
X6.2Y-9.0
T7
X2.6059Y-1.4772
X2.6059Y-3.3315
X2.6059Y-3.8772
X2.6059Y-5.7315
X3.4059Y-1.4772
X3.4059Y-3.3315
X3.4059Y-3.8772
X3.4059Y-5.7315
X4.2059Y-1.4772
X4.2059Y-3.3315
X4.2059Y-3.8772
X4.2059Y-5.7315
X5.0059Y-1.4772
X5.0059Y-3.3315
X5.0059Y-3.8772
X5.0059Y-5.7315
X5.8059Y-1.4772
X5.8059Y-3.3315
X5.8059Y-3.8772
X5.8059Y-5.7315
T0
M30
